# Blender v2.93.0 OBJ File: ''
# www.blender.org
mtllib Dado8.mtl
o Cube.001_Cube.002
v -1.000000 1.511370 1.000000
v 0.000000 2.961759 0.000000
v -1.000000 1.511370 -1.000000
v 0.000000 2.961759 0.000000
v 1.000000 1.511370 1.000000
v 0.000000 2.961759 0.000000
v 1.000000 1.511370 -1.000000
v 0.000000 2.961759 0.000000
v -1.000000 1.510994 -1.000000
v 0.000000 0.060606 -0.000000
v -1.000000 1.510994 1.000000
v 0.000000 0.060606 -0.000000
v 1.000000 1.510994 -1.000000
v 0.000000 0.060606 -0.000000
v 1.000000 1.510994 1.000000
v 0.000000 0.060606 -0.000000
vt 0.635219 0.505015
vt 0.494587 0.744678
vt 0.355253 0.502239
vt 0.358611 0.496306
vt 0.493928 0.262483
vt 0.634489 0.494417
vt 0.494634 0.742614
vt 0.212744 0.743206
vt 0.349691 0.507679
vt 0.347400 0.493250
vt 0.211187 0.253502
vt 0.492369 0.255131
vt 0.625000 0.500000
vt 0.875000 0.750000
vt 0.625000 0.750000
vt 0.499290 0.246543
vt 0.641080 0.005809
vt 0.781824 0.248095
vt 0.636719 0.508789
vt 0.773438 0.741211
vt 0.501953 0.744141
vt 0.495609 0.258699
vt 0.777340 0.254973
vt 0.637117 0.492184
vt 0.775429 0.749284
vt 0.639699 0.985768
vt 0.498607 0.743215
vt 0.625000 0.500000
vt 0.875000 0.750000
vt 0.625000 0.750000
vt 0.375000 0.500000
vt 0.375000 0.750000
vt 0.625000 1.000000
vt 0.375000 0.000000
vt 0.625000 0.000000
vt 0.625000 0.250000
vt 0.375000 0.250000
vt 0.875000 0.500000
vt 0.375000 0.000000
vt 0.625000 0.000000
vt 0.625000 0.250000
vt 0.375000 0.250000
vt 0.375000 0.500000
vt 0.375000 0.750000
vt 0.625000 1.000000
vt 0.875000 0.500000
vn -0.8233 0.5676 0.0000
vn 0.0000 0.5676 -0.8233
vn 0.8233 0.5676 0.0000
vn 0.0000 0.5676 0.8233
vn 0.0000 0.0000 1.0000
vn -0.8233 -0.5676 -0.0000
vn 0.0000 -0.5676 0.8233
vn 0.8233 -0.5676 -0.0000
vn 0.0000 -0.5676 -0.8233
usemtl Material.001
s off
f 1/1/1 4/2/1 3/3/1
f 3/4/2 8/5/2 7/6/2
f 7/7/3 6/8/3 5/9/3
f 5/10/4 2/11/4 1/12/4
f 8/13/5 2/14/5 6/15/5
f 9/16/6 12/17/6 11/18/6
f 11/19/7 16/20/7 15/21/7
f 15/22/8 14/23/8 13/24/8
f 13/25/9 10/26/9 9/27/9
f 16/28/5 10/29/5 14/30/5
f 7/31/5 8/13/5 6/15/5
f 5/32/5 6/15/5 2/33/5
f 1/34/5 2/35/5 4/36/5
f 3/37/5 4/36/5 8/13/5
f 8/13/5 4/38/5 2/14/5
f 9/39/5 10/40/5 12/41/5
f 11/42/5 12/41/5 16/28/5
f 15/43/5 16/28/5 14/30/5
f 13/44/5 14/30/5 10/45/5
f 16/28/5 12/46/5 10/29/5
